<svg xmlns="http://www.w3.org/2000/svg" viewBox="0 0 480 340" role="img" aria-labelledby="title desc">
<title id="title">Book Rating Prediction conceptual workflow</title>
<desc id="desc">Users + books → Data + classifiers → Predicted ratings. An illustrative diagram, not an application screenshot.</desc>
<rect width="480" height="340" fill="#f3e8f0"/>
<circle cx="435" cy="50" r="105" fill="none" stroke="#7e4168" stroke-opacity=".12"/>
<circle cx="435" cy="50" r="75" fill="none" stroke="#7e4168" stroke-opacity=".12"/>
<g font-family="Arial, sans-serif"><text x="54" y="40" font-size="10" letter-spacing="2" fill="#7e4168">CONCEPTUAL WORKFLOW</text>
<text x="54" y="72" font-size="22" font-weight="600" fill="#202823">Book Rating Prediction</text>
<rect x="54" y="100" width="372" height="53" rx="10" fill="white" stroke="#7e4168" stroke-opacity=".18"/>
<circle cx="82" cy="126" r="13" fill="#f3e8f0"/>
<text x="82" y="130" text-anchor="middle" font-size="11" fill="#7e4168">1</text>
<text x="108" y="131" font-size="16" fill="#202823">Users + books</text><path d="M240 154v14m-4-4 4 4 4-4" fill="none" stroke="#7e4168"/><rect x="54" y="169" width="372" height="53" rx="10" fill="white" stroke="#7e4168" stroke-opacity=".18"/>
<circle cx="82" cy="195" r="13" fill="#f3e8f0"/>
<text x="82" y="199" text-anchor="middle" font-size="11" fill="#7e4168">2</text>
<text x="108" y="200" font-size="16" fill="#202823">Data + classifiers</text><path d="M240 223v14m-4-4 4 4 4-4" fill="none" stroke="#7e4168"/><rect x="54" y="238" width="372" height="53" rx="10" fill="white" stroke="#7e4168" stroke-opacity=".18"/>
<circle cx="82" cy="264" r="13" fill="#f3e8f0"/>
<text x="82" y="268" text-anchor="middle" font-size="11" fill="#7e4168">3</text>
<text x="108" y="269" font-size="16" fill="#202823">Predicted ratings</text></g></svg>