<svg xmlns="http://www.w3.org/2000/svg" viewBox="0 0 480 340" role="img" aria-labelledby="title desc">
<title id="title">Ready to Learn conceptual workflow</title>
<desc id="desc">Live check-in → Readiness ratings → Classroom insights. An illustrative diagram, not an application screenshot.</desc>
<rect width="480" height="340" fill="#e7f0e7"/>
<circle cx="435" cy="50" r="105" fill="none" stroke="#25644e" stroke-opacity=".12"/>
<circle cx="435" cy="50" r="75" fill="none" stroke="#25644e" stroke-opacity=".12"/>
<g font-family="Arial, sans-serif"><text x="54" y="40" font-size="10" letter-spacing="2" fill="#25644e">CONCEPTUAL WORKFLOW</text>
<text x="54" y="72" font-size="22" font-weight="600" fill="#202823">Ready to Learn</text>
<rect x="54" y="100" width="372" height="53" rx="10" fill="white" stroke="#25644e" stroke-opacity=".18"/>
<circle cx="82" cy="126" r="13" fill="#e7f0e7"/>
<text x="82" y="130" text-anchor="middle" font-size="11" fill="#25644e">1</text>
<text x="108" y="131" font-size="16" fill="#202823">Live check-in</text><path d="M240 154v14m-4-4 4 4 4-4" fill="none" stroke="#25644e"/><rect x="54" y="169" width="372" height="53" rx="10" fill="white" stroke="#25644e" stroke-opacity=".18"/>
<circle cx="82" cy="195" r="13" fill="#e7f0e7"/>
<text x="82" y="199" text-anchor="middle" font-size="11" fill="#25644e">2</text>
<text x="108" y="200" font-size="16" fill="#202823">Readiness ratings</text><path d="M240 223v14m-4-4 4 4 4-4" fill="none" stroke="#25644e"/><rect x="54" y="238" width="372" height="53" rx="10" fill="white" stroke="#25644e" stroke-opacity=".18"/>
<circle cx="82" cy="264" r="13" fill="#e7f0e7"/>
<text x="82" y="268" text-anchor="middle" font-size="11" fill="#25644e">3</text>
<text x="108" y="269" font-size="16" fill="#202823">Classroom insights</text></g></svg>